<svg width="12" height="12" viewBox="0 0 12 12" fill="none" xmlns="http://www.w3.org/2000/svg">
<path d="M10.0833 1.33329H8.91667V0.749959C8.91667 0.59525 8.85521 0.446877 8.74582 0.33748C8.63642 0.228084 8.48805 0.166626 8.33334 0.166626C8.17863 0.166626 8.03026 0.228084 7.92086 0.33748C7.81146 0.446877 7.75001 0.59525 7.75001 0.749959V1.33329H4.25001V0.749959C4.25001 0.59525 4.18855 0.446877 4.07915 0.33748C3.96975 0.228084 3.82138 0.166626 3.66667 0.166626C3.51196 0.166626 3.36359 0.228084 3.25419 0.33748C3.1448 0.446877 3.08334 0.59525 3.08334 0.749959V1.33329H1.91667C1.45254 1.33329 1.00742 1.51767 0.679235 1.84586C0.351046 2.17404 0.166672 2.61916 0.166672 3.08329V10.0833C0.166672 10.5474 0.351046 10.9925 0.679235 11.3207C1.00742 11.6489 1.45254 11.8333 1.91667 11.8333H10.0833C10.5475 11.8333 10.9926 11.6489 11.3208 11.3207C11.649 10.9925 11.8333 10.5474 11.8333 10.0833V3.08329C11.8333 2.61916 11.649 2.17404 11.3208 1.84586C10.9926 1.51767 10.5475 1.33329 10.0833 1.33329V1.33329ZM10.6667 10.0833C10.6667 10.238 10.6052 10.3864 10.4958 10.4958C10.3864 10.6052 10.238 10.6666 10.0833 10.6666H1.91667C1.76196 10.6666 1.61359 10.6052 1.50419 10.4958C1.3948 10.3864 1.33334 10.238 1.33334 10.0833V5.99996H10.6667V10.0833ZM10.6667 4.83329H1.33334V3.08329C1.33334 2.92858 1.3948 2.78021 1.50419 2.67081C1.61359 2.56142 1.76196 2.49996 1.91667 2.49996H3.08334V3.08329C3.08334 3.238 3.1448 3.38638 3.25419 3.49577C3.36359 3.60517 3.51196 3.66663 3.66667 3.66663C3.82138 3.66663 3.96975 3.60517 4.07915 3.49577C4.18855 3.38638 4.25001 3.238 4.25001 3.08329V2.49996H7.75001V3.08329C7.75001 3.238 7.81146 3.38638 7.92086 3.49577C8.03026 3.60517 8.17863 3.66663 8.33334 3.66663C8.48805 3.66663 8.63642 3.60517 8.74582 3.49577C8.85521 3.38638 8.91667 3.238 8.91667 3.08329V2.49996H10.0833C10.238 2.49996 10.3864 2.56142 10.4958 2.67081C10.6052 2.78021 10.6667 2.92858 10.6667 3.08329V4.83329Z" fill="#111563"/>
</svg>
